HIERARCHY
ROOT Hips
{
	OFFSET 0.000000 0.000000 0.000000
	CHANNELS 6 Xposition Yposition Zposition Zrotation Yrotation Xrotation 
	JOINT LeftUpLeg_virtual
	{
		OFFSET 0.000000 0.000000 0.000000
		CHANNELS 3 Zrotation Yrotation Xrotation
		JOINT LeftUpLeg
		{
			OFFSET 10.205400 -3.823500 0.155100
			CHANNELS 3 Zrotation Yrotation Xrotation
			JOINT LeftLeg
			{
				OFFSET 0.708757 -12.982077 0.567790
				CHANNELS 3 Zrotation Yrotation Xrotation
				JOINT LeftFoot
				{
					OFFSET -0.708756 -10.717838 -2.184338
					CHANNELS 3 Zrotation Yrotation Xrotation
					JOINT LeftToeBase
					{
						OFFSET 0.108149 -7.191104 7.560241
						CHANNELS 3 Zrotation Yrotation Xrotation
						End Site
						{
							OFFSET 0.000000 0.000000 0.000000
						}
					}
				}
			}
		}
	}
	JOINT RightUpLeg_virtual
	{
		OFFSET 0.000000 0.000000 0.000000
		CHANNELS 3 Zrotation Yrotation Xrotation
		JOINT RightUpLeg
		{
			OFFSET -10.205400 -3.823500 0.005500
			CHANNELS 3 Zrotation Yrotation Xrotation
			JOINT RightLeg
			{
				OFFSET -0.708756 -12.982134 0.610632
				CHANNELS 3 Zrotation Yrotation Xrotation
				JOINT RightFoot
				{
					OFFSET 0.708754 -10.717769 -1.945823
					CHANNELS 3 Zrotation Yrotation Xrotation
					JOINT RightToeBase
					{
						OFFSET -0.108140 -7.191069 7.372968
						CHANNELS 3 Zrotation Yrotation Xrotation
						End Site
						{
							OFFSET 0.000000 0.000000 0.000000
						}
					}
				}
			}
		}
	}
	JOINT Spine_virtual
	{
		OFFSET 0.000000 0.000000 0.000000
		CHANNELS 3 Zrotation Yrotation Xrotation
		JOINT Spine
		{
			OFFSET 0.000000 6.876099 0.125700
			CHANNELS 3 Zrotation Yrotation Xrotation
			JOINT Spine1
			{
				OFFSET 0.000000 8.022060 0.146608
				CHANNELS 3 Zrotation Yrotation Xrotation
				JOINT Spine2
				{
					OFFSET 0.000000 9.168068 0.167552
					CHANNELS 3 Zrotation Yrotation Xrotation
					JOINT Neck_virtual
					{
						OFFSET 0.000000 0.000000 0.000000
						CHANNELS 3 Zrotation Yrotation Xrotation
						JOINT Neck
						{
							OFFSET 0.000000 10.314075 0.188496
							CHANNELS 3 Zrotation Yrotation Xrotation
							JOINT Head
							{
								OFFSET 0.000000 7.643700 -2.377400
								CHANNELS 3 Zrotation Yrotation Xrotation
								End Site
								{
									OFFSET 0.000000 0.000000 0.000000
								}
							}
						}
					}
					JOINT LeftShoulder_virtual
					{
						OFFSET 0.000000 0.000000 0.000000
						CHANNELS 3 Zrotation Yrotation Xrotation
						JOINT LeftShoulder
						{
							OFFSET 4.392200 8.824978 0.174984
							CHANNELS 3 Zrotation Yrotation Xrotation
							JOINT LeftArm
							{
								OFFSET 8.771219 -2.981674 -0.026999
								CHANNELS 3 Zrotation Yrotation Xrotation
								JOINT LeftForeArm
								{
									OFFSET 8.512804 0.000000 -0.000000
									CHANNELS 3 Zrotation Yrotation Xrotation
									JOINT LeftHand
									{
										OFFSET 18.484802 0.000000 -0.000000
										CHANNELS 3 Zrotation Yrotation Xrotation
										End Site
										{
											OFFSET 0.000000 0.000000 0.000000
										}
									}
								}
							}
						}
					}
					JOINT RightShoulder_virtual
					{
						OFFSET 0.000000 0.000000 0.000000
						CHANNELS 3 Zrotation Yrotation Xrotation
						JOINT RightShoulder
						{
							OFFSET -4.392200 8.824993 0.141379
							CHANNELS 3 Zrotation Yrotation Xrotation
							JOINT RightArm
							{
								OFFSET -8.771282 -2.981682 -0.094208
								CHANNELS 3 Zrotation Yrotation Xrotation
								JOINT RightForeArm
								{
									OFFSET -8.494598 0.000000 0.000000
									CHANNELS 3 Zrotation Yrotation Xrotation
									JOINT RightHand
									{
										OFFSET -18.483803 0.000000 0.000001
										CHANNELS 3 Zrotation Yrotation Xrotation
										End Site
										{
											OFFSET 0.000000 0.000000 0.000000
										}
									}
								}
							}
						}
					}
				}
			}
		}
	}
}
MOTION
Frames: 8
Frame Time: 0.033333
-4.567390 36.480274 10.300845 -179.929996 0.475677 -179.904628 -2.051585 -4.065125 10.019557 -8.072276 3.506569 -17.854446 11.116305 6.624388 15.568320 -2.588088 -0.671027 9.533292 0.000000 0.000000 0.000000 3.140884 -1.833722 7.964148 -6.315387 2.767000 -15.113855 -6.853824 5.518883 16.196189 9.033120 2.591175 11.481276 0.000000 0.000000 0.000000 2.564124 0.198900 -1.849790 -4.598541 2.937368 -3.571446 0.257482 -2.818297 3.767502 -0.021925 -0.105234 0.021051 -0.309225 -0.866741 6.173894 0.630569 -1.633756 10.037605 0.000000 0.000000 0.000000 1.130038 -0.014682 3.258335 4.089433 0.508990 -4.686002 -14.905177 27.910012 -35.978329 -0.256934 -41.826327 -4.299833 0.000000 0.000000 0.000000 -2.273950 0.674609 2.863712 4.988404 -9.691484 -6.393670 20.621092 -28.454679 -38.586416 -0.139205 36.992216 -4.163987 0.000000 0.000000 0.000000 
-4.565594 36.477962 10.284186 -179.854945 0.647947 -179.868469 -2.090398 -3.974996 10.106254 -8.212038 3.940395 -17.828836 10.995045 7.062598 15.749774 -2.369142 -0.496247 9.554286 0.000000 0.000000 0.000000 3.164398 -1.608421 8.009061 -6.477795 3.150497 -15.121865 -7.030342 6.168333 16.249346 9.045923 2.593632 11.535995 0.000000 0.000000 0.000000 2.604434 0.092172 -1.841031 -4.582741 3.044604 -3.592877 0.289673 -2.723726 3.753835 0.005134 -0.005171 0.036952 -0.345834 -0.778032 6.225760 0.607259 -1.656442 10.113214 0.000000 0.000000 0.000000 1.099285 -0.000538 3.306527 4.071638 0.537973 -4.819203 -14.810980 27.842675 -35.940380 -0.299770 -41.777801 -4.249884 0.000000 0.000000 0.000000 -2.316639 0.693499 2.825362 5.027238 -9.726682 -6.262293 20.708133 -28.487008 -38.627274 -0.189422 36.970940 -4.238695 0.000000 0.000000 0.000000 
-4.566050 36.476318 10.265249 -179.860587 0.527802 -179.842624 -2.096188 -4.087172 10.104403 -8.207660 3.927674 -17.846560 11.009018 7.049472 15.797878 -2.371311 -0.502256 9.544315 0.000000 0.000000 0.000000 3.159860 -1.697673 8.007326 -6.462559 3.049651 -15.120085 -7.016614 6.177114 16.248035 9.051578 2.602554 11.478462 0.000000 0.000000 0.000000 2.590118 0.073424 -1.862481 -4.598965 3.008923 -3.608791 0.288476 -2.735068 3.758239 0.008753 -0.020476 0.045520 -0.346368 -0.771176 6.196035 0.625831 -1.643693 10.090242 0.000000 0.000000 0.000000 1.074066 -0.026651 3.278776 4.038471 0.518310 -4.749232 -14.781701 27.842633 -36.015659 -0.366448 -41.732432 -4.201893 0.000000 0.000000 0.000000 -2.325647 0.683246 2.837294 5.058083 -9.759732 -6.354367 20.781897 -28.451358 -38.610872 -0.209687 37.002420 -4.241664 0.000000 0.000000 0.000000 
-4.566194 36.474453 10.248709 -179.888372 0.552939 -179.796493 -2.126257 -4.078467 10.094598 -8.211718 3.898477 -17.861850 11.033070 7.073576 15.837117 -2.367770 -0.508463 9.513197 0.000000 0.000000 0.000000 3.138468 -1.679290 7.975784 -6.460006 2.949266 -15.126784 -6.980658 6.194223 16.310524 9.038929 2.612893 11.413116 0.000000 0.000000 0.000000 2.574026 0.098757 -1.901481 -4.616633 3.011913 -3.620260 0.270435 -2.701583 3.770515 -0.025598 0.009467 0.010399 -0.289045 -0.930646 6.252890 0.673309 -1.595308 10.102027 0.000000 0.000000 0.000000 1.134505 -0.065831 3.334023 4.025262 0.491457 -4.750268 -14.708718 27.815781 -35.941613 -0.359499 -41.702898 -4.252673 0.000000 0.000000 0.000000 -2.294451 0.677830 2.822942 5.186083 -9.779122 -6.240357 20.775987 -28.431086 -38.800297 -0.211456 36.950750 -4.271260 0.000000 0.000000 0.000000 
-4.566729 36.472694 10.237996 -179.900257 0.541039 -179.806369 -2.146788 -4.095092 10.092087 -8.213110 3.908852 -17.854726 11.040360 7.060151 15.883494 -2.358601 -0.513341 9.478996 0.000000 0.000000 0.000000 3.121319 -1.668537 7.959237 -6.471016 2.962211 -15.146631 -6.965058 6.170144 16.435517 9.026685 2.626826 11.369634 0.000000 0.000000 0.000000 2.540053 0.068924 -1.864749 -4.628590 2.973943 -3.628466 0.272077 -2.698962 3.751326 -0.021236 -0.001889 0.011073 -0.314062 -0.891985 6.217696 0.650911 -1.614379 10.069627 0.000000 0.000000 0.000000 1.163690 -0.038982 3.321283 4.009329 0.539445 -4.677554 -14.613632 27.860755 -35.856837 -0.308600 -41.690385 -4.301475 0.000000 0.000000 0.000000 -2.265925 0.649064 2.867386 5.269032 -9.798322 -6.426545 20.875232 -28.392835 -38.865504 -0.194041 36.959328 -4.230313 0.000000 0.000000 0.000000 
-4.567359 36.471954 10.231492 -179.910871 0.512978 -179.769459 -2.174161 -4.158023 10.074233 -8.205669 3.870230 -17.863839 11.044115 7.075853 15.935185 -2.345576 -0.515714 9.457006 0.000000 0.000000 0.000000 3.096358 -1.733430 7.916294 -6.465110 2.844405 -15.110480 -6.943290 6.153600 16.447720 9.027355 2.655922 11.377158 0.000000 0.000000 0.000000 2.525180 0.042768 -1.858327 -4.629660 2.928822 -3.657291 0.267262 -2.710570 3.762122 -0.028989 -0.018118 0.040672 -0.301624 -0.893795 6.190881 0.681336 -1.585599 10.074959 0.000000 0.000000 0.000000 1.171663 -0.001496 3.271046 3.980881 0.599622 -4.674052 -14.570332 27.936394 -35.770756 -0.350663 -41.713529 -4.283029 0.000000 0.000000 0.000000 -2.256487 0.698888 2.850498 5.374802 -9.749824 -6.379122 20.942484 -28.369438 -38.936795 -0.264865 36.956368 -4.297639 0.000000 0.000000 0.000000 
-4.569085 36.471596 10.226009 -179.833184 0.595986 -179.826764 -2.117253 -4.103275 10.100449 -8.178481 3.847053 -17.834213 11.008177 7.041463 16.010764 -2.293513 -0.486209 9.456892 0.000000 0.000000 0.000000 3.164882 -1.700062 7.904090 -6.470268 2.824093 -15.096316 -6.927025 6.145957 16.496351 9.049775 2.710150 11.365071 0.000000 0.000000 0.000000 2.621920 0.048012 -1.774432 -4.663025 2.933326 -3.678039 0.264572 -2.664029 3.748739 0.002135 0.017448 0.038502 -0.312944 -0.904752 6.181092 0.736654 -1.557019 10.089755 0.000000 0.000000 0.000000 1.151478 -0.002950 3.319781 3.928602 0.596305 -4.739806 -14.475683 27.924095 -35.635446 -0.401115 -41.712939 -4.241461 0.000000 0.000000 0.000000 -2.281145 0.716960 2.803542 5.458291 -9.753072 -6.343593 20.988186 -28.490491 -38.896899 -0.321725 37.020745 -4.380599 0.000000 0.000000 0.000000 
-4.569515 36.472980 10.217013 -179.875381 0.603659 -179.777136 -2.155962 -4.199275 10.091459 -8.148103 3.899626 -17.871103 10.970801 6.944798 16.020578 -2.217011 -0.438980 9.446305 0.000000 0.000000 0.000000 3.139057 -1.780734 7.865992 -6.466468 2.695772 -15.115719 -6.937868 6.113731 16.464424 9.150227 2.813687 11.426869 0.000000 0.000000 0.000000 2.522486 0.002685 -1.779103 -4.607307 2.893822 -3.727641 0.285931 -2.655022 3.753251 -0.022118 0.012055 0.024429 -0.313578 -0.832541 6.226953 0.757469 -1.546012 10.109238 0.000000 0.000000 0.000000 1.144905 0.014113 3.334139 3.866425 0.603760 -4.691361 -14.414704 27.987882 -35.524801 -0.416349 -41.780896 -4.227469 0.000000 0.000000 0.000000 -2.288178 0.737400 2.777248 5.571740 -9.685673 -6.305494 20.994354 -28.605980 -38.860211 -0.384138 37.006798 -4.422954 0.000000 0.000000 0.000000 
